<svg 
 xmlns="http://www.w3.org/2000/svg"
 xmlns:xlink="http://www.w3.org/1999/xlink"
 width="147px" height="64px">
<path fill-rule="evenodd"  fill="#E8EDF0"
 d="M137.810,16.296 L9.182,16.296 C4.659,16.296 0.977,12.645 0.977,8.156 C0.977,3.668 4.659,0.16 9.182,0.16 L137.810,0.16 C142.334,0.16 146.15,3.668 146.15,8.156 C146.15,12.645 142.334,16.296 137.810,16.296 ZM137.810,3.543 L9.182,3.543 C6.619,3.543 4.532,5.613 4.532,8.156 C4.532,10.700 6.619,12.770 9.182,12.770 L137.810,12.770 C140.374,12.770 142.461,10.700 142.461,8.156 C142.461,5.613 140.374,3.543 137.810,3.543 ZM22.454,47.706 L105.594,47.706 C110.118,47.706 113.799,51.357 113.799,55.846 C113.799,60.335 110.118,63.986 105.594,63.986 L22.454,63.986 C17.931,63.986 14.249,60.335 14.249,55.846 C14.249,51.357 17.931,47.706 22.454,47.706 ZM22.454,60.460 L105.594,60.460 C108.158,60.460 110.244,58.389 110.244,55.846 C110.244,53.303 108.158,51.233 105.594,51.233 L22.454,51.233 C19.890,51.233 17.804,53.303 17.804,55.846 C17.804,58.389 19.890,60.460 22.454,60.460 ZM27.713,32.1 C27.713,27.512 31.395,23.861 35.918,23.861 L119.57,23.861 C123.581,23.861 127.262,27.512 127.262,32.1 C127.262,36.489 123.581,40.141 119.57,40.141 L35.918,40.141 C31.395,40.141 27.713,36.489 27.713,32.1 ZM123.707,32.1 C123.707,29.457 121.621,27.387 119.57,27.387 L35.918,27.387 C33.355,27.387 31.268,29.457 31.268,32.1 C31.268,34.544 33.355,36.614 35.918,36.614 L119.57,36.614 C121.621,36.614 123.707,34.544 123.707,32.1 Z"/>
</svg>