<svg id="основа" xmlns="http://www.w3.org/2000/svg" xmlns:xlink="http://www.w3.org/1999/xlink" viewBox="0 0 128 128"><defs><style>.cls-1{fill:none;}.cls-2{fill:#31db92;}.cls-3{clip-path:url(#clip-path);}.cls-4{fill:#128e59;}.cls-5{fill:#138f5a;}.cls-6{fill:#13905a;}.cls-7{fill:#14915b;}.cls-8{fill:#14925c;}.cls-9{fill:#15935d;}.cls-10{fill:#15945d;}.cls-11{fill:#16955e;}.cls-12{fill:#16965f;}.cls-13{fill:#17975f;}.cls-14{fill:#189860;}.cls-15{fill:#189961;}.cls-16{fill:#199a62;}.cls-17{fill:#199b62;}.cls-18{fill:#1a9c63;}.cls-19{fill:#1a9d64;}.cls-20{fill:#1b9e65;}.cls-21{fill:#1b9f65;}.cls-22{fill:#1ca066;}.cls-23{fill:#1ca167;}.cls-24{fill:#1da267;}.cls-25{fill:#1ea368;}.cls-26{fill:#1ea469;}.cls-27{fill:#1fa56a;}.cls-28{fill:#1fa66a;}.cls-29{fill:#20a76b;}.cls-30{fill:#20a86c;}.cls-31{fill:#21a96c;}.cls-32{fill:#21aa6d;}.cls-33{fill:#22ab6e;}.cls-34{fill:#23ac6f;}.cls-35{fill:#23ad6f;}.cls-36{fill:#24ae70;}.cls-37{fill:#24af71;}.cls-38{fill:#25b071;}.cls-39{fill:#25b172;}.cls-40{fill:#26b273;}.cls-41{fill:#26b374;}.cls-42{fill:#27b474;}.cls-43{fill:#27b575;}.cls-44{fill:#28b676;}.cls-45{fill:#29b776;}.cls-46{fill:#29b877;}.cls-47{fill:#2ab978;}.cls-48{fill:#2aba79;}.cls-49{fill:#2bbc79;}.cls-50{fill:#2bbd7a;}.cls-51{fill:#2cbe7b;}.cls-52{fill:#2cbf7c;}.cls-53{fill:#2dc07c;}.cls-54{fill:#2ec17d;}.cls-55{fill:#2ec27e;}.cls-56{fill:#2fc37e;}.cls-57{fill:#2fc47f;}.cls-58{fill:#30c580;}.cls-59{fill:#30c681;}.cls-60{fill:#31c781;}.cls-61{fill:#31c882;}.cls-62{fill:#32c983;}.cls-63{fill:#32ca83;}.cls-64{fill:#33cb84;}.cls-65{fill:#34cc85;}.cls-66{fill:#34cd86;}.cls-67{fill:#35ce86;}.cls-68{fill:#35cf87;}.cls-69{fill:#36d088;}.cls-70{fill:#36d188;}.cls-71{fill:#37d289;}.cls-72{fill:#37d38a;}.cls-73{fill:#38d48b;}.cls-74{fill:#39d58b;}.cls-75{fill:#39d68c;}.cls-76{fill:#3ad78d;}.cls-77{fill:#3ad88d;}.cls-78{fill:#3bd98e;}.cls-79{fill:#3bda8f;}.cls-80{fill:#3cdb90;}.cls-81{fill:#3cdc90;}.cls-82{fill:#3ddd91;}.cls-83{fill:#3dde92;}.cls-84{fill:#3edf93;}.cls-85{fill:#3fe093;}.cls-86{fill:#3fe194;}.cls-87{fill:#40e295;}.cls-88{fill:#40e395;}.cls-89{fill:#41e496;}.cls-90{fill:#41e597;}.cls-91{fill:#42e698;}.cls-92{fill:#42e798;}.cls-93{fill:#43e899;}.cls-94{fill:#fcfafa;}.cls-95{fill:#ddd;}.cls-96{fill:#c15252;}.cls-97{fill:#c6c6c6;}.cls-98{fill:#e4ea8b;}.cls-99{fill:#f7c981;}.cls-100{fill:#aa3737;}.cls-101{opacity:0.2;}.cls-102{opacity:0.75;}.cls-103{clip-path:url(#clip-path-2);}.cls-104{fill:#bbffe3;}.cls-105{fill:#bcffe2;}.cls-106{fill:#bcffe1;}.cls-107{fill:#bdffdf;}.cls-108{fill:#beffde;}.cls-109{fill:#bfffdc;}.cls-110{fill:#bfffdb;}.cls-111{fill:#c0ffda;}.cls-112{fill:#c1ffd8;}.cls-113{fill:#c2ffd7;}.cls-114{fill:#c3ffd5;}.cls-115{fill:#c3ffd4;}.cls-116{fill:#c4ffd3;}.cls-117{fill:#c5ffd1;}.cls-118{fill:#c5ffd0;}.cls-119{fill:#c7ffce;}.cls-120{fill:#c7ffcd;}.cls-121{fill:#c8ffcc;}.cls-122{fill:#c9ffca;}.cls-123{fill:#c9ffc9;}.cls-124{fill:#caffc7;}.cls-125{fill:#cbffc6;}.cls-126{fill:#cbffc5;}.cls-127{fill:#cdffc3;}.cls-128{fill:#cdffc2;}.cls-129{fill:#ceffc0;}.cls-130{fill:#cfffbf;}.cls-131{fill:#d0ffbd;}.cls-132{fill:#d0ffbc;}.cls-133{fill:#d1ffbb;}.cls-134{fill:#d2ffb9;}.cls-135{fill:#d3ffb8;}.cls-136{fill:#d4ffb6;}.cls-137{fill:#d4ffb5;}.cls-138{fill:#d5ffb4;}.cls-139{fill:#d6ffb2;}.cls-140{fill:#d6ffb1;}.cls-141{fill:#d8ffaf;}.cls-142{fill:#d8ffae;}.cls-143{fill:#d9ffad;}.cls-144{fill:#daffab;}.cls-145{fill:#daffaa;}.cls-146{fill:#dbffa8;}.cls-147{fill:#dcffa7;}.cls-148{fill:#dcffa6;}.cls-149{fill:#deffa3;}.cls-150{fill:#deffa2;}.cls-151{fill:#dfffa0;}.cls-152{fill:#e0ff9f;}.cls-153{fill:#e0ff9e;}.cls-154{fill:#e1ff9c;}.cls-155{fill:#e2ff9b;}.cls-156{fill:#e3ff99;}.cls-157{fill:#e4ff98;}.cls-158{fill:#e5ff96;}.cls-159{fill:#e5ff95;}.cls-160{fill:#e6ff94;}.cls-161{fill:#e7ff92;}.cls-162{fill:#e7ff91;}.cls-163{fill:#e9ff8f;}.cls-164{fill:#e9ff8e;}.cls-165{fill:#eaff8d;}.cls-166{fill:#ebff8b;}.cls-167{fill:#ebff8a;}.cls-168{fill:#ecff88;}.cls-169{fill:#edff87;}.cls-170{fill:#edff86;}.cls-171{fill:#efff84;}.cls-172{fill:#efff83;}.cls-173{fill:#f0ff81;}.cls-174{fill:#f1ff80;}.cls-175{fill:#f1ff7f;}.cls-176{fill:#f2ff7d;}.cls-177{fill:#f3ff7c;}.cls-178{fill:#f4ff7a;}.cls-179{fill:#f5ff79;}.cls-180{fill:#f5ff78;}.cls-181{fill:#f6ff76;}.cls-182{fill:#f7ff75;}.cls-183{fill:#f8ff73;}.cls-184{fill:#f8ff72;}.cls-185{fill:#faff70;}.cls-186{fill:#faff6f;}.cls-187{fill:#fbff6e;}.cls-188{fill:#fcff6c;}.cls-189{fill:#fcff6b;}.cls-190{fill:#fdff69;}.cls-191{fill:#feff68;}.cls-192{fill:#feff67;}.cls-193{fill:#fff;}</style><clipPath id="clip-path"><path class="cls-1" d="M127.5,64c0,0.34,0,.67,0,1,0,0.17,0,.34,0,0.51,0,0.5,0,1-.05,1.5s-0.05,1-.09,1.49-0.08,1-.12,1.48-0.13,1.28-.21,1.91-0.15,1.11-.23,1.66c-0.12.79-.26,1.57-0.41,2.35A61.44,61.44,0,0,1,124,84.71a4.68,4.68,0,0,1-.19.46c0,0.09.09,0.17,0.06,0.26l0.12,0h0a4.51,4.51,0,0,1-.63,1.32H123.2s-0.2.05-.2,0.08h0c-1,1.93-1.5,3.82-2.43,5.65l-0.21,0a2.53,2.53,0,0,0-.36.28h0a36,36,0,0,1-4.07,7.12c-0.05.08,0,.17,0,0.25-0.31.45-.57,0.9-0.9,1.34-0.12.16-.22,0.33-0.34,0.49l0,0.05c-0.05.08,0.17,0.07,0.11,0.14s0.26,0,.26,0h0l-0.25,0-0.18.06-0.07,0c-0.27.36-.58,0.72-0.87,1.07l0,0a0.13,0.13,0,0,1-.05.05c-0.35.43-.71,0.86-1.07,1.29l-0.49.57c-0.26.31-.53,0.61-0.8,0.9l-0.68.74c-0.47.51-.95,1-1.43,1.49l0,0s-0.06.12-.08,0.14h0l0,0v0a6.18,6.18,0,0,1-1.22,1.19L97.44,34h13.34l14.85,14.74c0.12,0.49.24,1,.35,1.44A62.84,62.84,0,0,1,127.5,64Z"/></clipPath><clipPath id="clip-path-2"><path class="cls-1" d="M90.29,41.22L3.18,78.44A61.76,61.76,0,0,1,2,72.25a63.06,63.06,0,0,1,25.16-59Z"/></clipPath></defs><title>Weather icons</title><path class="cls-2" d="M127.5,64c0,0.34,0,.67,0,1,0,0.17,0,.34,0,0.51,0,0.5,0,1-.05,1.5s-0.05,1-.09,1.49-0.08,1-.12,1.48-0.13,1.28-.21,1.91-0.15,1.11-.23,1.66c-0.12.79-.26,1.57-0.41,2.35A61.44,61.44,0,0,1,124,84.71a4.68,4.68,0,0,1-.19.46c0,0.09.09,0.17,0.06,0.26l0.12,0h0a4.51,4.51,0,0,1-.63,1.32H123.2s-0.2.05-.2,0.08h0c-1,1.93-1.5,3.82-2.43,5.65l-0.21,0a2.53,2.53,0,0,0-.36.28h0a36,36,0,0,1-4.07,7.12c-0.05.08,0,.17,0,0.25-0.31.45-.57,0.9-0.9,1.34-0.12.16-.22,0.33-0.34,0.49l0,0.05a1.12,1.12,0,0,1-.09.15h0v0l0,0-0.05,0v0c-0.27.36-.55,0.72-0.84,1.07l0,0a0.11,0.11,0,0,1,0,.05c-0.35.43-.7,0.86-1.07,1.29l-0.49.57c-0.26.31-.53,0.61-0.8,0.9l-0.68.74c-0.47.51-.95,1-1.43,1.49l0,0s-0.06.12-.08,0.14h0l0,0v0a5.89,5.89,0,0,1-1.22,1.14l-0.16.14h0c-0.23.21-.47,0.4-0.7,0.63l0,0-0.1.08a63.46,63.46,0,0,1-7.39,5.72l-0.12.07c-1.66,1.09-3.36,2.12-5.12,3.05l-1.34.69a62.28,62.28,0,0,1-9.77,3.94,9.22,9.22,0,0,1-2.55.75h0a81.78,81.78,0,0,1-15.87,2c-0.54,0-1.07,0-1.6,0A63,63,0,0,1,3.18,78.47v0c-0.12-.5-0.23-1-0.34-1.51s-0.2-1-.29-1.51a0.29,0.29,0,0,1,0-.07c-0.08-.4-0.15-0.81-0.21-1.22,0-.19-0.06-0.38-0.09-0.57C2.16,73.11,2.1,72.68,2,72.25A63,63,0,0,1,1.5,64c0-1.13,0-2.25.09-3.37s0.13-2,.23-3c0.06-.61.13-1.22,0.2-1.82l0.08-.55,0-.14c0.05-.37.1-0.74,0.17-1.11s0.15-1,.24-1.45,0.2-1,.31-1.57c0-.23.09-0.45,0.15-0.68s0.12-.54.19-0.82,0.11-.48.17-0.72a0.13,0.13,0,0,1,0-.07c0.08-.34.17-0.68,0.26-1l0-.07q0.14-.55.31-1.09a0.24,0.24,0,0,1,0-.09c0.08-.27.15-0.54,0.24-0.81a0.27,0.27,0,0,1,0-.1c0.09-.31.19-0.63,0.29-0.94a0.92,0.92,0,0,1,0-.1c0.14-.45.29-0.9,0.45-1.34s0.28-.79.43-1.19,0.19-.51.29-0.76,0.24-.61.36-0.92,0.18-.45.28-0.67c0.31-.75.65-1.5,1-2.24l0.26-.54c0.31-.66.64-1.32,1-2,0.19-.37.39-0.75,0.59-1.11,0.1-.19.2-0.38,0.31-0.57l0.33-.57c0.13-.24.28-0.49,0.42-0.72s0.21-.36.33-0.54a0.15,0.15,0,0,1,0-.07c0.14-.25.29-0.49,0.45-0.74s0.2-.35.32-0.51,0.29-.47.45-0.7c0.41-.63.84-1.25,1.27-1.86,0.18-.26.36-0.51,0.55-0.75a0.74,0.74,0,0,1,.09-0.12c0.15-.2.3-0.42,0.46-0.62a0.84,0.84,0,0,1,.1-0.13c0.26-.33.51-0.67,0.77-1l1-1.18Q18,21.34,20.19,19.2c0.37-.37.75-0.74,1.13-1.1s0.93-.86,1.41-1.29q1.43-1.27,2.94-2.45c0.51-.39,1-0.78,1.53-1.16A63,63,0,0,1,125.63,48.7c0.12,0.49.24,1,.35,1.46A63,63,0,0,1,127.5,64Z"/><g class="cls-3"><polygon class="cls-4" points="99.64 34 97 34.89 97 34 99.64 34"/><polygon class="cls-5" points="101.84 34 97 35.78 97 34.89 99.64 34 101.84 34"/><polygon class="cls-6" points="104.05 34 97 36.67 97 35.78 101.84 34 104.05 34"/><polygon class="cls-7" points="106.25 34 97 37.56 97 36.67 104.05 34 106.25 34"/><polygon class="cls-8" points="108.45 34 97 38.45 97 37.56 106.25 34 108.45 34"/><polygon class="cls-9" points="110.65 34 97 39.34 97 38.45 108.45 34 110.65 34"/><polygon class="cls-10" points="112.85 34 97 40.23 97 39.34 110.65 34 112.85 34"/><polygon class="cls-11" points="115.06 34 97 41.12 97 40.23 112.85 34 115.06 34"/><polygon class="cls-12" points="117.26 34 97 42.01 97 41.12 115.06 34 117.26 34"/><polygon class="cls-13" points="119.46 34 97 42.9 97 42.01 117.26 34 119.46 34"/><polygon class="cls-14" points="121.66 34 97 43.79 97 42.9 119.46 34 121.66 34"/><polygon class="cls-15" points="121.83 34 121.9 34.7 97 44.68 97 43.79 121.66 34 121.83 34"/><polygon class="cls-16" points="121.9 34.7 122.1 35.47 97 45.57 97 44.68 121.9 34.7"/><polygon class="cls-17" points="122.21 35.47 122.41 36.23 97 46.46 97 45.57 122.21 35.47"/><polygon class="cls-18" points="122.52 36.23 122.72 37 97 47.35 97 46.46 122.52 36.23"/><polygon class="cls-19" points="122.83 37 123.03 37.77 97 48.24 97 47.35 122.83 37"/><polygon class="cls-20" points="123.14 37.77 123.33 38.53 97 49.13 97 48.24 123.14 37.77"/><polygon class="cls-21" points="123.44 38.53 123.64 39.3 97 50.02 97 49.13 123.44 38.53"/><polygon class="cls-22" points="123.75 39.3 123.95 40.06 97 50.91 97 50.02 123.75 39.3"/><polygon class="cls-23" points="124.06 40.06 124.26 40.82 97 51.8 97 50.91 124.06 40.06"/><polygon class="cls-24" points="124.37 40.82 124.57 41.59 97 52.68 97 51.8 124.37 40.82"/><polygon class="cls-25" points="124.68 41.59 124.88 42.35 97 53.57 97 52.68 124.68 41.59"/><polygon class="cls-26" points="124.99 42.35 125.19 43.12 97 54.46 97 53.57 124.99 42.35"/><polygon class="cls-27" points="125.3 43.12 125.5 43.88 97 55.35 97 54.46 125.3 43.12"/><polygon class="cls-28" points="125.61 43.88 125.81 44.65 97 56.24 97 55.35 125.61 43.88"/><polygon class="cls-29" points="125.92 44.65 126.12 45.41 97 57.13 97 56.24 125.92 44.65"/><polygon class="cls-30" points="126.23 45.41 126.42 46.18 97 58.02 97 57.13 126.23 45.41"/><polygon class="cls-31" points="126.53 46.18 126.73 46.94 97 58.91 97 58.02 126.53 46.18"/><polygon class="cls-32" points="126.84 46.94 127.04 47.71 97 59.8 97 58.91 126.84 46.94"/><polygon class="cls-33" points="126.9 47.71 127 48.02 127 48.55 97 60.69 97 59.8 126.9 47.71"/><polygon class="cls-34" points="127 49.44 97 61.58 97 60.69 127 48.55 127 49.44"/><polygon class="cls-35" points="127 50.33 97 62.47 97 61.58 127 49.44 127 50.33"/><polygon class="cls-36" points="127 51.22 97 63.36 97 62.47 127 50.33 127 51.22"/><polygon class="cls-37" points="127 52.11 97 64.25 97 63.36 127 51.22 127 52.11"/><polygon class="cls-38" points="127 52.99 97 65.14 97 64.25 127 52.11 127 52.99"/><polygon class="cls-39" points="127 53.88 97 66.03 97 65.14 127 52.99 127 53.88"/><polygon class="cls-40" points="127 54.77 97 66.92 97 66.03 127 53.88 127 54.77"/><polygon class="cls-41" points="127 55.66 97 67.81 97 66.92 127 54.77 127 55.66"/><polygon class="cls-42" points="127 56.55 97 68.7 97 67.81 127 55.66 127 56.55"/><polygon class="cls-43" points="127 57.44 97 69.59 97 68.7 127 56.55 127 57.44"/><polygon class="cls-44" points="127 58.33 97 70.48 97 69.59 127 57.44 127 58.33"/><polygon class="cls-45" points="127 59.22 97 71.37 97 70.48 127 58.33 127 59.22"/><polygon class="cls-46" points="127 60.11 97 72.26 97 71.37 127 59.22 127 60.11"/><polygon class="cls-47" points="127 61 97 73.15 97 72.26 127 60.11 127 61"/><polygon class="cls-48" points="127 61.89 97 74.04 97 73.15 127 61 127 61.89"/><polygon class="cls-49" points="127 62.78 97 74.93 97 74.04 127 61.89 127 62.78"/><polygon class="cls-50" points="127 63.67 97 75.82 97 74.93 127 62.78 127 63.67"/><polygon class="cls-51" points="127 64.56 97 76.71 97 75.82 127 63.67 127 64.56"/><polygon class="cls-52" points="127 65.45 97 77.6 97 76.71 127 64.56 127 65.45"/><polygon class="cls-53" points="127 66.34 97 78.49 97 77.6 127 65.45 127 66.34"/><polygon class="cls-54" points="127 67.23 97 79.38 97 78.49 127 66.34 127 67.23"/><polygon class="cls-55" points="127 68.12 97 80.27 97 79.38 127 67.23 127 68.12"/><polygon class="cls-56" points="127 69.01 97 81.16 97 80.27 127 68.12 127 69.01"/><polygon class="cls-57" points="127 69.9 97 82.05 97 81.16 127 69.01 127 69.9"/><polygon class="cls-58" points="127 70.79 97 82.94 97 82.05 127 69.9 127 70.79"/><polygon class="cls-59" points="127 71.68 97 83.83 97 82.94 127 70.79 127 71.68"/><polygon class="cls-60" points="127 72.57 97 84.72 97 83.83 127 71.68 127 72.57"/><polygon class="cls-61" points="127 73.46 97 85.61 97 84.72 127 72.57 127 73.46"/><polygon class="cls-62" points="127 74.35 97 86.49 97 85.61 127 73.46 127 74.35"/><polygon class="cls-63" points="127 75.24 97 87.38 97 86.49 127 74.35 127 75.24"/><polygon class="cls-64" points="127 76.13 97 88.27 97 87.38 127 75.24 127 76.13"/><polygon class="cls-65" points="127 77.02 97 89.16 97 88.27 127 76.13 127 77.02"/><polygon class="cls-66" points="127 77.91 97.02 90.03 97 89.92 97 89.16 127 77.02 127 77.91"/><polygon class="cls-67" points="127 78.8 97.55 90.8 97.11 90.03 127 77.91 127 78.8"/><polygon class="cls-68" points="127 79.69 97.86 91.56 97.42 90.8 127 78.8 127 79.69"/><polygon class="cls-69" points="127 80.58 98.16 92.33 97.73 91.56 127 79.69 127 80.58"/><polygon class="cls-70" points="127 81.47 98.47 93.09 98.04 92.33 127 80.58 127 81.47"/><polygon class="cls-71" points="127 82.36 98.78 93.86 98.35 93.09 127 81.47 127 82.36"/><polygon class="cls-72" points="127 83.25 99.09 94.62 98.66 93.86 127 82.36 127 83.25"/><polygon class="cls-73" points="127 84.14 99.4 95.39 98.97 94.62 127 83.25 127 84.14"/><polygon class="cls-74" points="127 85.03 99.71 96.15 99.28 95.39 127 84.14 127 85.03"/><polygon class="cls-75" points="127 85.92 100.02 96.92 99.58 96.15 127 85.03 127 85.92"/><polygon class="cls-76" points="127 86.81 100.33 97.68 99.89 96.92 127 85.92 127 86.81"/><polygon class="cls-77" points="127 87.69 100.64 98.45 100.2 97.68 127 86.81 127 87.69"/><polygon class="cls-78" points="127 88.58 100.95 99.21 100.51 98.45 127 87.69 127 88.58"/><polygon class="cls-79" points="127 89.47 101.25 99.98 100.82 99.21 127 88.58 127 89.47"/><polygon class="cls-80" points="127 90.36 101.56 100.74 101.13 99.98 127 89.47 127 90.36"/><polygon class="cls-81" points="127 91.25 101.87 101.51 101.44 100.74 127 90.36 127 91.25"/><polygon class="cls-82" points="127 92.14 102.18 102.27 101.75 101.51 127 91.25 127 92.14"/><polygon class="cls-83" points="127 93.03 102.49 103.04 102.06 102.27 127 92.14 127 93.03"/><polygon class="cls-84" points="127 93.92 102.8 103.8 102.37 103.04 127 93.03 127 93.92"/><polygon class="cls-85" points="127 94.81 103.11 104.57 102.67 103.8 127 93.92 127 94.81"/><polygon class="cls-86" points="127 95.7 103.42 105.33 102.98 104.57 127 94.81 127 95.7"/><polygon class="cls-87" points="127 96.59 103.73 106.1 103.29 105.33 127 95.7 127 96.59"/><polygon class="cls-88" points="127 97.48 104.04 106.86 103.6 106.1 127 96.59 127 97.48"/><polygon class="cls-89" points="127 98.37 104.34 107.63 103.91 106.86 127 97.48 127 98.37"/><polygon class="cls-90" points="127 99.26 104.65 108.39 104.22 107.63 127 98.37 127 99.26"/><polygon class="cls-91" points="127 100.15 104.96 109.16 104.53 108.39 127 99.26 127 100.15"/><polygon class="cls-92" points="127 101.04 105.27 109.92 104.84 109.16 127 100.15 127 101.04"/><polygon class="cls-93" points="127 101.93 107.69 110 105.53 110 105.27 109.95 127 101.04 127 101.93"/><polygon class="cls-93" points="107.69 110 127 101.93 127 110 107.69 110"/></g><path class="cls-94" d="M114.65,102.09l0,0.06-0.07.1-0.1.11s-0.07-.11,0,0l0,0s0,0,0,0,0,0,0,0h0s-0.84,1.07-1.28,1.6-0.87,1.06-1.33,1.57c-0.3.33-.59,0.68-0.9,1s-0.42.47-.65,0.7c-0.38.4-.77,0.8-1.16,1.19l-0.09.11-0.1.16,0,0a7.47,7.47,0,0,1-1.38,1.29v0.17l0.17,0.79h-0.9s-0.07-.1-0.1-0.07a62.84,62.84,0,0,1-7.39,5.65s-0.08,0-.12,0c-1.66,1.09-3.36,2.1-5.12,3-0.44.24-.89,0.46-1.34,0.68a61.77,61.77,0,0,1-9.77,3.8,9.12,9.12,0,0,1-2.55.62l0.5-5.12,0.51-5.18,1.27-13.37L83,97.4V93.79L84,86l0.38-2.88L85,77.09l0.27-2.48,0.65-6.48,0.88-9,0.27-2.71,0.39-3.84,0,0.07L87.69,51h0l0-.36L87.85,49H107l1.46,10.37,0.84,6L111,77.14l0,0.16v0.06l0,0.26,0.6,5.56L113,94v1.64l1.1,5.21,0.12,0.07,0.11,0.16,0.33,1v0.05Z"/><rect class="cls-95" x="85.71" y="32.21" width="23.24" height="16.42" rx="2.29" ry="2.29"/><polygon class="cls-96" points="108.07 56.16 87.08 56.51 86.25 65 109.34 65 108.07 56.16"/><polygon class="cls-96" points="110.48 74.12 85.22 74.49 84.22 83 112 83 110.48 74.12"/><polygon class="cls-96" points="112.95 92.07 83.73 92.47 82.57 101 114.71 101 112.95 92.07"/><path class="cls-96" d="M106.78,111s-0.07-.1-0.1-0.07a62.84,62.84,0,0,1-7.39,5.65s-0.08.2-.12,0.22c-1.66,1.09-3.36,2.2-5.12,3.2H80.6l0.8-5.37,0.52-3.33,24.77-.3h0.1Z"/><path class="cls-97" d="M106.66,32H106V43.78A1.93,1.93,0,0,1,104.1,46H86v0.34c0,1.27.74,2.66,2,2.66h18.65A2.68,2.68,0,0,0,109,46.34V34.5A2.52,2.52,0,0,0,106.66,32Z"/><ellipse class="cls-98" cx="90.3" cy="41.22" rx="3.62" ry="5.06"/><path class="cls-99" d="M90.3,46.6c-2.17,0-3.94-2.42-3.94-5.38s1.77-5.38,3.94-5.38,3.94,2.42,3.94,5.38S92.47,46.6,90.3,46.6Zm0-10.13c-1.82,0-3.3,2.13-3.3,4.74S88.47,46,90.3,46s3.3-2.13,3.3-4.74S92.12,36.48,90.3,36.48Z"/><polygon class="cls-96" points="97.46 21.77 97.46 21.77 97.33 21.77 84.01 33.92 97.35 33.92 97.44 33.92 110.78 33.92 97.46 21.77"/><polygon class="cls-100" points="97.46 22 97.33 22 95.66 23.45 107.31 34 110.78 34 97.46 22"/><g class="cls-101"><path d="M114.47,102.33a63.44,63.44,0,0,1-5.4,6.17l-1-7.42-1.23-8.88-1.25-9-0.84-6.08L104.3,74.3l-1.25-9-0.84-6.08-0.38-3L101.28,52H87.47l0.22-1.82L87.85,49H107l1.46,10.37,0.84,6L111,77.14l0,0.16v0.06l0.64,5.81L113,94h0l1.14,7.07Z"/></g><g class="cls-102"><g class="cls-103"><rect class="cls-104" x="1" y="13" width="1" height="65"/><rect class="cls-105" x="2" y="13" width="1" height="65"/><rect class="cls-106" x="3" y="13" width="1" height="65"/><rect class="cls-107" x="4" y="13" width="1" height="65"/><rect class="cls-108" x="5" y="13" width="1" height="65"/><rect class="cls-109" x="6" y="13" width="1" height="65"/><rect class="cls-110" x="7" y="13" width="1" height="65"/><rect class="cls-111" x="8" y="13" width="1" height="65"/><rect class="cls-112" x="9" y="13" width="1" height="65"/><rect class="cls-113" x="10" y="13" width="1" height="65"/><rect class="cls-114" x="11" y="13" width="1" height="65"/><rect class="cls-115" x="12" y="13" width="1" height="65"/><rect class="cls-116" x="13" y="13" width="1" height="65"/><rect class="cls-117" x="14" y="13" width="1" height="65"/><rect class="cls-118" x="15" y="13" width="1" height="65"/><rect class="cls-119" x="16" y="13" width="1" height="65"/><rect class="cls-120" x="17" y="13" width="1" height="65"/><rect class="cls-121" x="18" y="13" width="1" height="65"/><rect class="cls-122" x="19" y="13" width="1" height="65"/><rect class="cls-123" x="20" y="13" width="1" height="65"/><rect class="cls-124" x="21" y="13" width="1" height="65"/><rect class="cls-125" x="22" y="13" width="1" height="65"/><rect class="cls-126" x="23" y="13" width="1" height="65"/><rect class="cls-127" x="24" y="13" width="1" height="65"/><rect class="cls-128" x="25" y="13" width="1" height="65"/><rect class="cls-129" x="26" y="13" width="1" height="65"/><rect class="cls-130" x="27" y="13" width="1" height="65"/><rect class="cls-131" x="28" y="13" width="1" height="65"/><rect class="cls-132" x="29" y="13" width="1" height="65"/><rect class="cls-133" x="30" y="13" width="1" height="65"/><rect class="cls-134" x="31" y="13" width="1" height="65"/><rect class="cls-135" x="32" y="13" width="1" height="65"/><rect class="cls-136" x="33" y="13" width="1" height="65"/><rect class="cls-137" x="34" y="13" width="1" height="65"/><rect class="cls-138" x="35" y="13" width="1" height="65"/><rect class="cls-139" x="36" y="13" width="1" height="65"/><rect class="cls-140" x="37" y="13" width="1" height="65"/><rect class="cls-141" x="38" y="13" width="1" height="65"/><rect class="cls-142" x="39" y="13" width="1" height="65"/><rect class="cls-143" x="40" y="13" width="1" height="65"/><rect class="cls-144" x="41" y="13" width="1" height="65"/><rect class="cls-145" x="42" y="13" width="1" height="65"/><rect class="cls-146" x="43" y="13" width="1" height="65"/><rect class="cls-147" x="44" y="13" width="1" height="65"/><rect class="cls-148" x="45" y="13" width="1" height="65"/><rect class="cls-149" x="46" y="13" width="1" height="65"/><rect class="cls-150" x="47" y="13" width="1" height="65"/><rect class="cls-151" x="48" y="13" width="1" height="65"/><rect class="cls-152" x="49" y="13" width="1" height="65"/><rect class="cls-153" x="50" y="13" width="1" height="65"/><rect class="cls-154" x="51" y="13" width="1" height="65"/><rect class="cls-155" x="52" y="13" width="1" height="65"/><rect class="cls-156" x="53" y="13" width="1" height="65"/><rect class="cls-157" x="54" y="13" width="1" height="65"/><rect class="cls-158" x="55" y="13" width="1" height="65"/><rect class="cls-159" x="56" y="13" width="1" height="65"/><rect class="cls-160" x="57" y="13" width="1" height="65"/><rect class="cls-161" x="58" y="13" width="1" height="65"/><rect class="cls-162" x="59" y="13" width="1" height="65"/><rect class="cls-163" x="60" y="13" width="1" height="65"/><rect class="cls-164" x="61" y="13" width="1" height="65"/><rect class="cls-165" x="62" y="13" width="1" height="65"/><rect class="cls-166" x="63" y="13" width="1" height="65"/><rect class="cls-167" x="64" y="13" width="1" height="65"/><rect class="cls-168" x="65" y="13" width="1" height="65"/><rect class="cls-169" x="66" y="13" width="1" height="65"/><rect class="cls-170" x="67" y="13" width="1" height="65"/><rect class="cls-171" x="68" y="13" width="1" height="65"/><rect class="cls-172" x="69" y="13" width="1" height="65"/><rect class="cls-173" x="70" y="13" width="1" height="65"/><rect class="cls-174" x="71" y="13" width="1" height="65"/><rect class="cls-175" x="72" y="13" width="1" height="65"/><rect class="cls-176" x="73" y="13" width="1" height="65"/><rect class="cls-177" x="74" y="13" width="1" height="65"/><rect class="cls-178" x="75" y="13" width="1" height="65"/><rect class="cls-179" x="76" y="13" width="1" height="65"/><rect class="cls-180" x="77" y="13" width="1" height="65"/><rect class="cls-181" x="78" y="13" width="1" height="65"/><rect class="cls-182" x="79" y="13" width="1" height="65"/><rect class="cls-183" x="80" y="13" width="1" height="65"/><rect class="cls-184" x="81" y="13" width="1" height="65"/><rect class="cls-185" x="82" y="13" width="1" height="65"/><rect class="cls-186" x="83" y="13" width="1" height="65"/><rect class="cls-187" x="84" y="13" width="1" height="65"/><rect class="cls-188" x="85" y="13" width="1" height="65"/><rect class="cls-189" x="86" y="13" width="1" height="65"/><rect class="cls-190" x="87" y="13" width="1" height="65"/><rect class="cls-191" x="88" y="13" width="1" height="65"/><rect class="cls-192" x="89" y="13" width="1" height="65"/></g></g><path class="cls-193" d="M83.84,54.39A9.89,9.89,0,0,1,77.31,52a5.79,5.79,0,0,0-7.74,0,10.22,10.22,0,0,1-13.05,0,5.79,5.79,0,0,0-7.73,0,10.21,10.21,0,0,1-13.05,0A5.78,5.78,0,0,0,28,52a9.88,9.88,0,0,1-6.52,2.36A9.88,9.88,0,0,1,15,52a5.54,5.54,0,0,0-3.87-1.48,2.24,2.24,0,1,1,0-4.48,9.88,9.88,0,0,1,6.53,2.36,5.79,5.79,0,0,0,7.73,0,10.21,10.21,0,0,1,13,0,5.79,5.79,0,0,0,7.73,0,10.22,10.22,0,0,1,13.05,0,5.79,5.79,0,0,0,7.73,0,10.22,10.22,0,0,1,13.05,0,5.8,5.8,0,0,0,7.74,0,9.89,9.89,0,0,1,6.53-2.36,2.24,2.24,0,1,1,0,4.48A5.55,5.55,0,0,0,90.37,52,9.89,9.89,0,0,1,83.84,54.39Z"/><path class="cls-193" d="M104.95,63.34A9.89,9.89,0,0,1,98.42,61a5.79,5.79,0,0,0-7.74,0,10.21,10.21,0,0,1-13.05,0,5.79,5.79,0,0,0-7.73,0,10.21,10.21,0,0,1-13.05,0,5.78,5.78,0,0,0-7.73,0,10.21,10.21,0,0,1-13.05,0A5.54,5.54,0,0,0,32.2,59.5a2.24,2.24,0,0,1,0-4.48,9.88,9.88,0,0,1,6.53,2.36,5.78,5.78,0,0,0,7.73,0,10.21,10.21,0,0,1,13,0,5.78,5.78,0,0,0,7.73,0,10.21,10.21,0,0,1,13.05,0,5.79,5.79,0,0,0,7.73,0,10.22,10.22,0,0,1,13.06,0,5.8,5.8,0,0,0,7.74,0A9.89,9.89,0,0,1,115.35,55a2.24,2.24,0,0,1,0,4.48A5.55,5.55,0,0,0,111.48,61,9.89,9.89,0,0,1,104.95,63.34Z"/><path class="cls-193" d="M85.12,72.29a9.89,9.89,0,0,1-6.53-2.36,5.79,5.79,0,0,0-7.74,0,10.22,10.22,0,0,1-13.05,0,5.79,5.79,0,0,0-7.73,0,10.21,10.21,0,0,1-13.05,0,5.78,5.78,0,0,0-7.73,0,9.88,9.88,0,0,1-6.52,2.36,9.88,9.88,0,0,1-6.53-2.36,5.54,5.54,0,0,0-3.87-1.48,2.24,2.24,0,1,1,0-4.48,9.88,9.88,0,0,1,6.53,2.36,5.79,5.79,0,0,0,7.73,0,10.21,10.21,0,0,1,13,0,5.79,5.79,0,0,0,7.73,0,10.22,10.22,0,0,1,13.05,0,5.79,5.79,0,0,0,7.73,0,10.22,10.22,0,0,1,13.05,0,5.8,5.8,0,0,0,7.74,0A9.89,9.89,0,0,1,95.52,64a2.24,2.24,0,0,1,0,4.48,5.55,5.55,0,0,0-3.87,1.48A9.89,9.89,0,0,1,85.12,72.29Z"/><path class="cls-193" d="M105.59,81.25a9.89,9.89,0,0,1-6.53-2.36,5.79,5.79,0,0,0-7.74,0,10.22,10.22,0,0,1-13.05,0,5.79,5.79,0,0,0-7.73,0,10.21,10.21,0,0,1-13.05,0,5.78,5.78,0,0,0-7.73,0,10.21,10.21,0,0,1-13.05,0,5.54,5.54,0,0,0-3.87-1.48,2.24,2.24,0,0,1,0-4.48,9.88,9.88,0,0,1,6.53,2.36,5.79,5.79,0,0,0,7.73,0,10.21,10.21,0,0,1,13,0,5.79,5.79,0,0,0,7.73,0,10.22,10.22,0,0,1,13.05,0,5.79,5.79,0,0,0,7.73,0,10.22,10.22,0,0,1,13.06,0,5.8,5.8,0,0,0,7.74,0A9.89,9.89,0,0,1,116,72.93a2.24,2.24,0,0,1,0,4.48,5.55,5.55,0,0,0-3.87,1.48A9.89,9.89,0,0,1,105.59,81.25Z"/><path class="cls-193" d="M83.84,90.2a9.89,9.89,0,0,1-6.53-2.36,5.79,5.79,0,0,0-7.74,0,10.22,10.22,0,0,1-13.05,0,5.79,5.79,0,0,0-7.73,0,10.21,10.21,0,0,1-13.05,0,5.78,5.78,0,0,0-7.73,0,9.88,9.88,0,0,1-6.52,2.36A9.88,9.88,0,0,1,15,87.85a5.54,5.54,0,0,0-3.87-1.48,2.24,2.24,0,0,1,0-4.48,9.88,9.88,0,0,1,6.53,2.36,5.79,5.79,0,0,0,7.73,0,10.21,10.21,0,0,1,13,0,5.79,5.79,0,0,0,7.73,0,10.22,10.22,0,0,1,13.05,0,5.79,5.79,0,0,0,7.73,0,10.22,10.22,0,0,1,13.05,0,5.8,5.8,0,0,0,7.74,0,9.89,9.89,0,0,1,6.53-2.36,2.24,2.24,0,0,1,0,4.48,5.55,5.55,0,0,0-3.87,1.48A9.89,9.89,0,0,1,83.84,90.2Z"/><path class="cls-193" d="M99.36,99.8a9.07,9.07,0,0,1-6.19-2.41,4.75,4.75,0,0,0-6.79,0,9.17,9.17,0,0,1-12.39,0,4.76,4.76,0,0,0-6.79,0,9.17,9.17,0,0,1-12.39,0,4.76,4.76,0,0,0-6.8,0,9.17,9.17,0,0,1-12.39,0,4.76,4.76,0,0,0-6.8,0,9.08,9.08,0,0,1-6.2,2.41,2.24,2.24,0,0,1,0-4.48A4.71,4.71,0,0,0,26,93.89a9.18,9.18,0,0,1,12.4,0,4.76,4.76,0,0,0,6.8,0,9.17,9.17,0,0,1,12.39,0,4.76,4.76,0,0,0,6.8,0,9.17,9.17,0,0,1,12.39,0,4.75,4.75,0,0,0,6.79,0,9.17,9.17,0,0,1,12.39,0,4.71,4.71,0,0,0,3.4,1.43A2.24,2.24,0,1,1,99.36,99.8Z"/></svg>